<svg id="kity_svg_6" xmlns="http://www.w3.org/2000/svg" xmlns:xlink="http://www.w3.org/1999/xlink" version="1.1" width="590" height="510" style="background: rgb(251, 251, 251); visibility: visible;" viewBox="0 0 590 510"><defs id="kity_defs_7"><linearGradient id="kity_linearGradient_17" x1="0" y1="0" x2="0" y2="1"><stop id="kity_stop_18" offset="0" stop-color="rgb(255, 255, 255)"></stop><stop id="kity_stop_19" offset="1" stop-color="rgb(204, 204, 204)"></stop></linearGradient><marker id="kity_marker_2" orient="auto" refX="6" refY="0" viewBox="-7 -7 14 14" markerWidth="7" markerHeight="7" markerUnits="userSpaceOnUse"><path id="kity_path_3" fill="rgb(115, 161, 191)" stroke="none" d="M6,0A6,6,0,1,1,-6,0A6,6,0,1,1,6,0"></path></marker></defs><g id="kity_g_8"><g id="minder1" text-rendering="optimize-speed"><g id="minder_connect_group1"><path id="kity_path_33" fill="none" stroke="rgb(115, 161, 191)" stroke-width="1" d="M92.00000809878111,255.50000423938036A151.5,222,0,0,1,243.5000080987811,33.50000423938036"></path><path id="kity_path_37" fill="none" stroke="rgb(115, 161, 191)" stroke-width="1" d="M92.00000809878111,255.50000423938036A151.5,156,0,0,1,243.5000080987811,99.50000423938036"></path><path id="kity_path_43" fill="none" stroke="rgb(115, 161, 191)" stroke-width="1" d="M92.00000809878111,255.50000423938036A151.5,90,0,0,1,243.5000080987811,165.50000423938036"></path><path id="kity_path_191" fill="none" stroke="rgb(115, 161, 191)" stroke-width="1" d="M92.00000809878111,255.50000423938036A151.5,0,0,0,1,243.5000080987811,255.50000423938036"></path><path id="kity_path_199" fill="none" stroke="rgb(115, 161, 191)" stroke-width="1" d="M92.00000809878111,255.50000423938036A151.5,90,0,0,0,243.5000080987811,345.50000423938036"></path><path id="kity_path_215" fill="none" stroke="rgb(115, 161, 191)" stroke-width="1" d="M92.00000809878111,255.50000423938036A151.5,156,0,0,0,243.5000080987811,411.50000423938036"></path><path id="kity_path_231" fill="none" stroke="rgb(115, 161, 191)" stroke-width="1" d="M92.00000809878111,255.50000423938036A151.5,222,0,0,0,243.5000080987811,477.50000423938036"></path><path id="kity_path_238" fill="none" stroke="rgb(115, 161, 191)" stroke-width="1" d="M369.5000080987811,33.50000423938036C389.5000080987811,33.50000423938036,389.5000080987811,33.50000423938036,409.5000080987811,33.50000423938036"></path><path id="kity_path_239" fill="none" stroke="rgb(115, 161, 191)" stroke-width="1" d="M383.5000080987811,99.50000423938036C403.5000080987811,99.50000423938036,403.5000080987811,99.50000423938036,423.5000080987811,99.50000423938036"></path><path id="kity_path_240" fill="none" stroke="rgb(115, 161, 191)" stroke-width="1" d="M369.5000080987811,165.50000423938036C389.5000080987811,165.50000423938036,389.5000080987811,165.50000423938036,409.5000080987811,165.50000423938036"></path><path id="kity_path_241" fill="none" stroke="rgb(115, 161, 191)" stroke-width="1" d="M342.5000080987811,255.50000423938036C362.5000080987811,255.50000423938036,362.5000080987811,229.50000423938036,382.5000080987811,229.50000423938036"></path><path id="kity_path_242" fill="none" stroke="rgb(115, 161, 191)" stroke-width="1" d="M342.5000080987811,255.50000423938036C362.5000080987811,255.50000423938036,362.5000080987811,281.50000423938036,382.5000080987811,281.50000423938036"></path><path id="kity_path_243" fill="none" stroke="rgb(115, 161, 191)" stroke-width="1" d="M327.5000080987811,345.50000423938036C347.5000080987811,345.50000423938036,347.5000080987811,345.50000423938036,367.5000080987811,345.50000423938036"></path><path id="kity_path_244" fill="none" stroke="rgb(115, 161, 191)" stroke-width="1" d="M355.5000080987811,411.50000423938036C375.5000080987811,411.50000423938036,375.5000080987811,411.50000423938036,395.5000080987811,411.50000423938036"></path><path id="kity_path_245" fill="none" stroke="rgb(115, 161, 191)" stroke-width="1" d="M342.5000080987811,477.50000423938036C362.5000080987811,477.50000423938036,362.5000080987811,477.50000423938036,382.5000080987811,477.50000423938036"></path></g><g id="minder_node1"><path id="node_outline1" fill="rgb(115, 161, 191)" stroke="rgb(57, 80, 96)" d="M25.50000809878111,235.50000423938036h133a5,5,0,0,1,5,5v30a5,5,0,0,1,-5,5h-133a5,5,0,0,1,-5,-5v-30a5,5,0,0,1,5,-5z" stroke-width="3"></path><g id="node_text1" fill="white"><text id="kity_text_22" text-rendering="inherit" font-size="16" dy=".8em" y="245.10000420361757" x="44.50000809878111">材质Material</text></g></g><g id="kity_g_14" display="none"><path id="kity_path_15" fill="rgba(0, 92, 153, 0.5)" stroke="none" d="M284.5000080987811,373.50000423938036h97v20h-97z"></path><path id="kity_path_16" fill="none" stroke="rgb(0, 76, 128)" d="M284.5000080987811,393.50000423938036L381.5000080987811,393.50000423938036" stroke-width="1"></path></g><g id="minder_node3" opacity="1"><g id="node_expander2" style="cursor: pointer;"><path id="kity_path_129" fill="white" stroke="gray" d="M244.50001098960638,33.500000931322575A6,6,0,1,1,232.50001098960638,33.500000931322575A6,6,0,1,1,244.50001098960638,33.500000931322575"></path><path id="kity_path_130" fill="none" stroke="gray" d="M234.00001098960638,33.500000931322575L243.00001098960638,33.500000931322575"></path></g><path id="node_outline3" fill="rgb(238, 243, 246)" stroke="rgb(115, 161, 191)" d="M248.50001139193773,20.500000931322575h118a3,3,0,0,1,3,3v20a3,3,0,0,1,-3,3h-118a3,3,0,0,1,-3,-3v-20a3,3,0,0,1,3,-3z" stroke-width="1"></path><g id="node_text3" fill="black"><text id="kity_text_71" text-rendering="inherit" font-size="14" dy=".8em" y="24.400000900030136" x="265.50001139193773">网格基础材质</text></g></g><g id="minder_node5" opacity="1"><g id="node_expander4" style="cursor: pointer;"><path id="kity_path_135" fill="white" stroke="gray" d="M244.50001098960638,99.50000191479921A6,6,0,1,1,232.50001098960638,99.50000191479921A6,6,0,1,1,244.50001098960638,99.50000191479921"></path><path id="kity_path_136" fill="none" stroke="gray" d="M234.00001098960638,99.50000191479921L243.00001098960638,99.50000191479921"></path></g><path id="node_outline5" fill="rgb(238, 243, 246)" stroke="rgb(115, 161, 191)" d="M248.50001139193773,86.50000191479921h132a3,3,0,0,1,3,3v20a3,3,0,0,1,-3,3h-132a3,3,0,0,1,-3,-3v-20a3,3,0,0,1,3,-3z" stroke-width="1"></path><g id="node_text5" fill="black"><text id="kity_text_75" text-rendering="inherit" font-size="14" dy=".8em" y="90.40000188350677" x="265.50001139193773">网格漫反射材质</text></g></g><g id="minder_node8" opacity="1"><g id="node_expander7" style="cursor: pointer;"><path id="kity_path_144" fill="white" stroke="gray" d="M244.50001098960638,165.50000289827585A6,6,0,1,1,232.50001098960638,165.50000289827585A6,6,0,1,1,244.50001098960638,165.50000289827585"></path><path id="kity_path_145" fill="none" stroke="gray" d="M234.00001098960638,165.50000289827585L243.00001098960638,165.50000289827585"></path></g><path id="node_outline8" fill="rgb(238, 243, 246)" stroke="rgb(115, 161, 191)" d="M248.50001139193773,152.50000289827585h118a3,3,0,0,1,3,3v20a3,3,0,0,1,-3,3h-118a3,3,0,0,1,-3,-3v-20a3,3,0,0,1,3,-3z" stroke-width="1"></path><g id="node_text8" fill="black"><text id="kity_text_81" text-rendering="inherit" font-size="14" dy=".8em" y="156.4000028669834" x="265.50001139193773">网格高光材质</text></g></g><g id="minder_node22" opacity="1"><g id="node_expander21" style="cursor: pointer;"><path id="kity_path_196" fill="white" stroke="gray" d="M244.50001098960638,255.50000423938036A6,6,0,1,1,232.50001098960638,255.50000423938036A6,6,0,1,1,244.50001098960638,255.50000423938036"></path><path id="kity_path_197" fill="none" stroke="gray" d="M234.00001098960638,255.50000423938036L243.00001098960638,255.50000423938036"></path></g><path id="node_outline22" fill="rgb(238, 243, 246)" stroke="rgb(115, 161, 191)" d="M248.50001139193773,242.50000423938036h91a3,3,0,0,1,3,3v20a3,3,0,0,1,-3,3h-91a3,3,0,0,1,-3,-3v-20a3,3,0,0,1,3,-3z" stroke-width="1"></path><g id="node_text22" fill="black"><text id="kity_text_193" text-rendering="inherit" font-size="14" dy=".8em" y="246.40000420808792" x="265.50001139193773">物理材质</text></g></g><g id="minder_node23" opacity="1"><g id="node_expander22" style="cursor: pointer;"><path id="kity_path_204" fill="white" stroke="gray" d="M244.50001098960638,345.50000558048487A6,6,0,1,1,232.50001098960638,345.50000558048487A6,6,0,1,1,244.50001098960638,345.50000558048487"></path><path id="kity_path_205" fill="none" stroke="gray" d="M234.00001098960638,345.50000558048487L243.00001098960638,345.50000558048487"></path></g><path id="node_outline23" fill="rgb(238, 243, 246)" stroke="rgb(115, 161, 191)" d="M248.50001139193773,332.50000558048487h76a3,3,0,0,1,3,3v20a3,3,0,0,1,-3,3h-76a3,3,0,0,1,-3,-3v-20a3,3,0,0,1,3,-3z" stroke-width="1"></path><g id="node_text23" fill="black"><text id="kity_text_201" text-rendering="inherit" font-size="14" dy=".8em" y="336.40000554919243" x="265.50001139193773">点材质</text></g></g><g id="minder_node25" opacity="1"><g id="node_expander24" style="cursor: pointer;"><path id="kity_path_220" fill="white" stroke="gray" d="M244.50001098960638,411.5000065639615A6,6,0,1,1,232.50001098960638,411.5000065639615A6,6,0,1,1,244.50001098960638,411.5000065639615"></path><path id="kity_path_221" fill="none" stroke="gray" d="M234.00001098960638,411.5000065639615L243.00001098960638,411.5000065639615"></path></g><path id="node_outline25" fill="rgb(238, 243, 246)" stroke="rgb(115, 161, 191)" d="M248.50001139193773,398.5000065639615h104a3,3,0,0,1,3,3v20a3,3,0,0,1,-3,3h-104a3,3,0,0,1,-3,-3v-20a3,3,0,0,1,3,-3z" stroke-width="1"></path><g id="node_text25" fill="black"><text id="kity_text_217" text-rendering="inherit" font-size="14" dy=".8em" y="402.40000653266907" x="265.50001139193773">线基础材质</text></g></g><g id="minder_node27" opacity="1"><g id="node_expander26" style="cursor: pointer;"><path id="kity_path_236" fill="white" stroke="gray" d="M244.50001098960638,477.50000754743814A6,6,0,1,1,232.50001098960638,477.50000754743814A6,6,0,1,1,244.50001098960638,477.50000754743814"></path><path id="kity_path_237" fill="none" stroke="gray" d="M234.00001098960638,477.50000754743814L243.00001098960638,477.50000754743814"></path></g><path id="node_outline27" fill="rgb(238, 243, 246)" stroke="rgb(115, 161, 191)" d="M248.50001139193773,464.50000754743814h91a3,3,0,0,1,3,3v20a3,3,0,0,1,-3,3h-91a3,3,0,0,1,-3,-3v-20a3,3,0,0,1,3,-3z" stroke-width="1"></path><g id="node_text27" fill="black"><text id="kity_text_233" text-rendering="inherit" font-size="14" dy=".8em" y="468.4000075161457" x="265.50001139193773">精灵材质</text></g></g><g id="kity_g_12" display="none"><path id="kity_path_13" fill="none" stroke="rgb(66, 94, 112)" d="M287.5000080987811,398.50000423938036h91a3,3,0,0,1,3,3v20a3,3,0,0,1,-3,3h-91a3,3,0,0,1,-3,-3v-20a3,3,0,0,1,3,-3z" stroke-width="5"></path></g><g id="minder_node4" opacity="1"><g id="node_expander3" style="cursor: pointer;" display="none"><path id="kity_path_132" fill="white" stroke="gray" d="M409.500013448298,33.500000931322575A6,6,0,1,1,397.500013448298,33.500000931322575A6,6,0,1,1,409.500013448298,33.500000931322575"></path><path id="kity_path_133" fill="none" stroke="gray"></path></g><path id="node_outline4" fill="none" stroke="none" d="M414.50001368671656,22.500000931322575h118a5,5,0,0,1,5,5v12a5,5,0,0,1,-5,5h-118a5,5,0,0,1,-5,-5v-12a5,5,0,0,1,5,-5z" stroke-width="3"></path><g id="node_text4" fill="black"><text id="kity_text_73" text-rendering="inherit" font-size="12" dy=".8em" y="25.700000904500484" x="419.50001368671656">MeshBasicMaterial</text></g></g><g id="minder_node7" opacity="1"><g id="node_expander6" style="cursor: pointer;" display="none"><path id="kity_path_141" fill="white" stroke="gray" d="M423.50001365691423,99.50000191479921A6,6,0,1,1,411.50001365691423,99.50000191479921A6,6,0,1,1,423.50001365691423,99.50000191479921"></path><path id="kity_path_142" fill="none" stroke="gray"></path></g><path id="node_outline7" fill="none" stroke="none" d="M428.5000138953328,88.50000191479921h137a5,5,0,0,1,5,5v12a5,5,0,0,1,-5,5h-137a5,5,0,0,1,-5,-5v-12a5,5,0,0,1,5,-5z" stroke-width="3"></path><g id="node_text7" fill="black"><text id="kity_text_79" text-rendering="inherit" font-size="12" dy=".8em" y="91.70000188797712" x="433.5000138953328">MeshLambertMaterial</text></g></g><g id="minder_node10" opacity="1"><g id="node_expander9" style="cursor: pointer;" display="none"><path id="kity_path_150" fill="white" stroke="gray" d="M409.500013448298,165.50000289827585A6,6,0,1,1,397.500013448298,165.50000289827585A6,6,0,1,1,409.500013448298,165.50000289827585"></path><path id="kity_path_151" fill="none" stroke="gray"></path></g><path id="node_outline10" fill="none" stroke="none" d="M414.50001368671656,154.50000289827585h126a5,5,0,0,1,5,5v12a5,5,0,0,1,-5,5h-126a5,5,0,0,1,-5,-5v-12a5,5,0,0,1,5,-5z" stroke-width="3"></path><g id="node_text10" fill="black"><text id="kity_text_85" text-rendering="inherit" font-size="12" dy=".8em" y="157.70000287145376" x="419.50001368671656">MeshPhongMaterial</text></g></g><g id="minder_node11" opacity="1"><g id="node_expander10" style="cursor: pointer;" display="none"><path id="kity_path_153" fill="white" stroke="gray" d="M382.5000130459666,229.50000385195017A6,6,0,1,1,370.5000130459666,229.50000385195017A6,6,0,1,1,382.5000130459666,229.50000385195017"></path><path id="kity_path_154" fill="none" stroke="gray"></path></g><path id="node_outline11" fill="none" stroke="none" d="M387.5000132843852,218.50000385195017h140a5,5,0,0,1,5,5v12a5,5,0,0,1,-5,5h-140a5,5,0,0,1,-5,-5v-12a5,5,0,0,1,5,-5z" stroke-width="3"></path><g id="node_text11" fill="black"><text id="kity_text_87" text-rendering="inherit" font-size="12" dy=".8em" y="221.70000382512808" x="392.5000132843852">MeshStandardMaterial</text></g></g><g id="minder_node12" opacity="1"><g id="node_expander11" style="cursor: pointer;" display="none"><path id="kity_path_156" fill="white" stroke="gray" d="M382.5000130459666,281.50000462681055A6,6,0,1,1,370.5000130459666,281.50000462681055A6,6,0,1,1,382.5000130459666,281.50000462681055"></path><path id="kity_path_157" fill="none" stroke="gray"></path></g><path id="node_outline12" fill="none" stroke="none" d="M387.5000132843852,270.50000462681055h134a5,5,0,0,1,5,5v12a5,5,0,0,1,-5,5h-134a5,5,0,0,1,-5,-5v-12a5,5,0,0,1,5,-5z" stroke-width="3"></path><g id="node_text12" fill="black"><text id="kity_text_89" text-rendering="inherit" font-size="12" dy=".8em" y="273.70000459998846" x="392.5000132843852">MeshPhysicalMaterial</text></g></g><g id="minder_node24"><g id="node_expander23" style="cursor: pointer;" display="none"><path id="kity_path_212" fill="white" stroke="gray" d="M367.5000128224492,345.50000558048487A6,6,0,1,1,355.5000128224492,345.50000558048487A6,6,0,1,1,367.5000128224492,345.50000558048487"></path><path id="kity_path_213" fill="none" stroke="gray"></path></g><path id="node_outline24" fill="none" stroke="none" d="M372.5000130608678,334.50000558048487h92a5,5,0,0,1,5,5v12a5,5,0,0,1,-5,5h-92a5,5,0,0,1,-5,-5v-12a5,5,0,0,1,5,-5z" stroke-width="3"></path><g id="node_text24" fill="black"><text id="kity_text_209" text-rendering="inherit" font-size="12" dy=".8em" y="337.7000055536628" x="377.5000130608678">PointsMaterial</text></g></g><g id="minder_node26"><g id="node_expander25" style="cursor: pointer;" display="none"><path id="kity_path_228" fill="white" stroke="gray" d="M395.5000132396817,411.5000065639615A6,6,0,1,1,383.5000132396817,411.5000065639615A6,6,0,1,1,395.5000132396817,411.5000065639615"></path><path id="kity_path_229" fill="none" stroke="gray"></path></g><path id="node_outline26" fill="none" stroke="none" d="M400.5000134781003,400.5000065639615h110a5,5,0,0,1,5,5v12a5,5,0,0,1,-5,5h-110a5,5,0,0,1,-5,-5v-12a5,5,0,0,1,5,-5z" stroke-width="3"></path><g id="node_text26" fill="black"><text id="kity_text_225" text-rendering="inherit" font-size="12" dy=".8em" y="403.7000065371394" x="405.5000134781003">LineBasicMaterial</text></g></g><g id="minder_node19" opacity="1"><g id="node_expander18" style="cursor: pointer;" display="none"><path id="kity_path_177" fill="white" stroke="gray" d="M382.5000130459666,477.50000754743814A6,6,0,1,1,370.5000130459666,477.50000754743814A6,6,0,1,1,382.5000130459666,477.50000754743814"></path><path id="kity_path_178" fill="none" stroke="gray"></path></g><path id="node_outline19" fill="none" stroke="none" d="M387.5000132843852,466.50000754743814h91a5,5,0,0,1,5,5v12a5,5,0,0,1,-5,5h-91a5,5,0,0,1,-5,-5v-12a5,5,0,0,1,5,-5z" stroke-width="3"></path><g id="node_text19" fill="black"><text id="kity_text_103" text-rendering="inherit" font-size="12" dy=".8em" y="469.70000752061605" x="392.5000132843852">SpriteMaterial</text></g></g></g></g></svg>